<svg xmlns="http://www.w3.org/2000/svg" xmlns:xlink="http://www.w3.org/1999/xlink" width="239.5" height="79.973" viewBox="0 0 239.5 79.973">
  <defs>
    <linearGradient id="linear-gradient" x1="-0.27" y1="0.42" x2="8.947" y2="1.374" gradientUnits="objectBoundingBox">
      <stop offset="0" stop-color="#d1b28d"/>
      <stop offset="0.56" stop-color="#f7e7d3"/>
      <stop offset="1" stop-color="#d1b28e"/>
    </linearGradient>
    <linearGradient id="linear-gradient-2" x1="-0.509" y1="0.224" x2="3.185" y2="1.234" xlink:href="#linear-gradient"/>
    <linearGradient id="linear-gradient-3" x1="-2.244" y1="-0.013" x2="3.276" y2="0.974" xlink:href="#linear-gradient"/>
    <linearGradient id="linear-gradient-4" x1="-4.364" y1="-0.392" x2="1.156" y2="0.594" xlink:href="#linear-gradient"/>
    <linearGradient id="linear-gradient-5" x1="-2.696" y1="-0.261" x2="1.86" y2="0.749" xlink:href="#linear-gradient"/>
  </defs>
  <g id="Group_107" data-name="Group 107" transform="translate(-840 -51.333)">
    <path id="Path_99253" data-name="Path 99253" d="M-26.352-3.528l-.2-.054c-1.188,2.052-2.34,3.006-3.834,3.2A15.451,15.451,0,0,1-32.04-.27c-.918,0-1.836-.144-2.052-.468a4.414,4.414,0,0,1-.27-1.854c-.018-.468-.018-1.494-.018-2.142,0-.7,0-1.422.036-1.746.756,0,.738,0,1.458.036a2.565,2.565,0,0,1,1.638.612A5.685,5.685,0,0,1-30.1-3.6h.216V-9.522H-30.1c-.288,1.35-.72,2.268-2.178,2.61a12.409,12.409,0,0,1-2.088.144c0-.126-.018-.756-.018-2.574,0-1.584.054-2.9.09-3.276a7.826,7.826,0,0,1,1.314-.09,8.885,8.885,0,0,1,3.024.36A9.7,9.7,0,0,1-27.126-9.81l.18-.09-1.224-3.06H-38.412v.18a2.075,2.075,0,0,1,1.4.522,4.539,4.539,0,0,1,.306,2.214v3.51c0,1.386-.018,3.06-.036,3.726a4.351,4.351,0,0,1-.324,1.944,2.519,2.519,0,0,1-1.512.684V0h11.322ZM-15.7-3.654A3.518,3.518,0,0,0-18.36-7.128c-.882-.324-1.638-.576-2.466-.9-1.152-.432-2.088-1.134-2.088-2.376a2.471,2.471,0,0,1,2.646-2.466c1.764,0,3.132,1.872,3.726,3.492h.2v-3.564h-.2a2.55,2.55,0,0,1-.54.684,5.805,5.805,0,0,0-3.276-.9c-2.286,0-4.5,1.242-4.5,3.834A3.56,3.56,0,0,0-22.464-6.03c1.008.4,1.656.594,2.61.936,1.17.432,2.088,1.026,2.088,2.322A2.6,2.6,0,0,1-20.628-.126a3.859,3.859,0,0,1-1.782-.54,6.719,6.719,0,0,1-2.358-3.186h-.18l.054,3.834h.162c.2-.27.486-.666.558-.666a7.368,7.368,0,0,0,3.618.846C-17.82.162-15.7-1.278-15.7-3.654ZM-1.4-9.54-2-13.14a6.522,6.522,0,0,1-1.854.306c-1.818.018-2.7.036-4.482.036s-2.664,0-4.482-.036a6.907,6.907,0,0,1-1.872-.27l-.594,3.564.162.054a10.106,10.106,0,0,1,1.566-2.322,2.628,2.628,0,0,1,1.944-.666c.918-.018,1.062-.018,2.088-.018v5.958c0,1.368-.018,2.988-.036,3.654A4.359,4.359,0,0,1-9.81-.954a2.463,2.463,0,0,1-1.782.774V0H-5.31V-.18A2.572,2.572,0,0,1-7-.936,4.085,4.085,0,0,1-7.2-2.61v-4c0-1.89,0-4.662.018-5.886,1.062,0,1.17,0,2.088.018a2.61,2.61,0,0,1,1.944.612A10.792,10.792,0,0,1-1.566-9.486ZM-3.042-1.17A1.222,1.222,0,0,0-1.836.054,1.237,1.237,0,0,0-.612-1.17,1.222,1.222,0,0,0-1.836-2.376,1.206,1.206,0,0,0-3.042-1.17ZM10.242,0V-.2C9.468-.216,8.8-.378,8.8-.99V-11.772c0-.828.036-1.314.036-1.314h-.18L5.076-11.772v.2c1.53-.27,1.872.234,1.872.792v9.774c0,.54-.576.792-1.368.81V0ZM19.71-8.532a4.5,4.5,0,0,0-4.356-4.554A4.256,4.256,0,0,0,11.07-8.874a3.811,3.811,0,0,0,4,3.978,3.706,3.706,0,0,0,1.548-.288,9.149,9.149,0,0,1-5.04,5.22l.126.27C15.408-.612,19.71-3.978,19.71-8.532Zm-2-.558a5.461,5.461,0,0,1-.882,3.33,1.32,1.32,0,0,1-1.134.45c-1.8,0-2.664-2.466-2.664-4.392,0-1.944.918-3.1,2.34-3.1C16.974-12.8,17.712-10.908,17.712-9.09ZM28.854-3.564c0-1.98-1.818-2.97-2.916-3.546,1.512-.81,2.718-1.818,2.718-3.258,0-1.512-1.4-2.718-3.744-2.718a3.718,3.718,0,0,0-3.78,3.438c0,1.764,1.152,2.718,2.5,3.6-1.3.774-2.664,1.728-2.664,3.276,0,1.764,1.98,2.88,3.744,2.88A3.876,3.876,0,0,0,28.854-3.564ZM27.09-10.35a3.39,3.39,0,0,1-1.4,3.1c-1.17-.594-2.88-1.62-2.88-3.456a2.047,2.047,0,0,1,2.124-2.07A2.253,2.253,0,0,1,27.09-10.35Zm-.072,7.938A2.021,2.021,0,0,1,24.984-.2a2.4,2.4,0,0,1-2.358-2.646A3.869,3.869,0,0,1,23.9-5.9C25.758-5.04,27.018-4.014,27.018-2.412ZM38.826-4.23a3.841,3.841,0,0,0-4.032-3.834,3.585,3.585,0,0,0-1.242.162,10.7,10.7,0,0,1,5.112-4.986L38.52-13.1c-3.672.9-8.334,4.176-8.334,8.676A4.461,4.461,0,0,0,34.452.09,4.287,4.287,0,0,0,38.826-4.23Zm-2.016.738c0,2.16-.972,3.276-2.322,3.276-1.422,0-2.322-1.26-2.322-3.4a5.741,5.741,0,0,1,1.116-3.726,1.16,1.16,0,0,1,.936-.36C36.054-7.7,36.792-5.436,36.81-3.492Z" transform="translate(960 131)" fill="#f4ece4"/>
    <path id="Line_43" data-name="Line 43" d="M64.5.25H0v-.5H64.5Z" transform="translate(1015 125.5)" fill="#f4ece4"/>
    <path id="Line_44" data-name="Line 44" d="M64.5.25H0v-.5H64.5Z" transform="translate(840.5 125.5)" fill="#f4ece4"/>
    <g id="jmcvc_logo" data-name="jmcvc logo" transform="translate(823.78 33.243)">
      <path id="Path_99248" data-name="Path 99248" d="M22.418,23.17H42.666v1.4s-6.721-.174-6.721,5.848V59.3s-.524,11.085-8.378,14.837-7.331,3.4-11.347,3.666v-1.4s11.7-5.411,11.7-15.885V28.407s-.36-4.1-5.51-4.1l.011-1.135Z" transform="translate(0 -4.383)" fill="url(#linear-gradient)"/>
      <path id="Path_99249" data-name="Path 99249" d="M228.738,23.17h15.885l18.765,39.713L278.4,23.17h14.314v.961s-6.284.524-6.284,4.451V68.73s.611,4.626,6.284,4.626v1.4H272.9v-1.4s5.5-.785,5.5-4.19V28.757l-17.019,46h-2.094L239.036,32.16V63.581s.262,9.688,8.728,9.688v1.484H226.73V73.181s10.3-.524,10.3-9.339V28.581s.174-4.1-5.848-4.1H228.65Z" transform="translate(-181.62 -4.383)" fill="url(#linear-gradient-2)"/>
      <path id="Path_99250" data-name="Path 99250" d="M768.223,34.236V22.1s-6.284-4.014-10.386-4.014H745.793S724.06,20.584,724.06,43.251,740.9,70.894,746.142,70.894h7.906a26.6,26.6,0,0,0,9.843-1.838c2.242-.892,4.256-2.063,4.333-3.4V54.225h-1.571s-1.484,15.361-14.052,14.75h-1.78A16.385,16.385,0,0,1,736.6,60.983a15.135,15.135,0,0,1-2.07-7.717V40.708a32.072,32.072,0,0,1,2.826-13.362c1.689-3.688,4.16-7.16,7.473-7.16h7.5a14.693,14.693,0,0,1,9.294,3.207,13.372,13.372,0,0,1,4.936,10.931l1.658-.088Z" transform="translate(-610.697)" fill="url(#linear-gradient-3)"/>
      <path id="Path_99251" data-name="Path 99251" d="M1481.773,34.236V22.1s-6.284-4.014-10.386-4.014h-12.044s-21.733,2.494-21.733,25.161,16.844,27.643,22.082,27.643h7.906a26.6,26.6,0,0,0,9.843-1.838c2.243-.892,4.256-2.063,4.333-3.4V54.225H1480.2s-1.484,15.361-14.052,14.75h-1.78a16.385,16.385,0,0,1-14.218-7.993,15.139,15.139,0,0,1-2.069-7.717V40.708a32.073,32.073,0,0,1,2.826-13.362c1.689-3.688,4.16-7.16,7.473-7.16h7.5a14.693,14.693,0,0,1,9.294,3.207,13.371,13.371,0,0,1,4.936,10.931l1.658-.088Z" transform="translate(-1226.321)" fill="url(#linear-gradient-4)"/>
      <path id="Path_99252" data-name="Path 99252" d="M1071.93,23.161h20.947v1.047s-4.8.436-4.8,3.229V31.1l13.092,32.642,11.608-28.977s1.221-5.848,0-7.681c0,0-1.309-3.055-6.284-3.055V23.16h18.94v.961s-5.674.262-7.157,3.4-19.2,47.218-19.2,47.218h-1.833l-18.678-46.52s-1.221-3.753-4.538-3.928h-2.094V23.16Z" transform="translate(-910.826 -4.374)" fill="url(#linear-gradient-5)"/>
    </g>
  </g>
</svg>
